<svg xmlns="http://www.w3.org/2000/svg" style="border:0px solid;">
<symbol id="icon-task-add-version-two" viewBox="0 0 47 47">
<path d="M23.4998 43.0833C20.7908 43.0833 18.245 42.569 15.8623 41.5402C13.4797 40.5127 11.4071 39.1177 9.64463 37.3552C7.88213 35.5927 6.48714 33.5201 5.45967 31.1375C4.43089 28.7549 3.9165 26.209 3.9165 23.5C3.9165 20.791 4.43089 18.2451 5.45967 15.8625C6.48714 13.4799 7.88213 11.4073 9.64463 9.6448C11.4071 7.8823 13.4797 6.48666 15.8623 5.45788C18.245 4.43041 20.7908 3.91667 23.4998 3.91667C25.6214 3.91667 27.6287 4.22674 29.5217 4.84688C31.4148 5.46702 33.1609 6.33195 34.7603 7.44167L31.9207 10.3302C30.6804 9.54688 29.3585 8.93457 27.955 8.4933C26.5516 8.05332 25.0665 7.83334 23.4998 7.83334C19.1589 7.83334 15.4628 9.35888 12.4118 12.41C9.35936 15.4624 7.83317 19.159 7.83317 23.5C7.83317 27.841 9.35936 31.5377 12.4118 34.59C15.4628 37.6411 19.1589 39.1667 23.4998 39.1667C24.5443 39.1667 25.5561 39.0688 26.5353 38.8729C27.5144 38.6771 28.4609 38.3997 29.3748 38.0406L32.3123 41.0271C30.9741 41.6799 29.5707 42.1858 28.1019 42.5448C26.6332 42.9038 25.0991 43.0833 23.4998 43.0833ZM37.2082 39.1667V33.2917H31.3332V29.375H37.2082V23.5H41.1248V29.375H46.9998V33.2917H41.1248V39.1667H37.2082ZM20.7582 32.5083L12.4353 24.1854L15.1769 21.4438L20.7582 27.025L40.3415 7.39271L43.0832 10.1344L20.7582 32.5083Z"/>
</symbol>
<symbol id="icon-task-check-v2" viewBox="0 0 40 40">
<path d="M15.9165 30L6.4165 20.5L8.7915 18.125L15.9165 25.25L31.2082 9.95833L33.5832 12.3333L15.9165 30Z" fill="#1C1B1F"/>
</symbol>

<symbol id="icon-addTask" viewBox="0 0 44 44">
<path d="M9.16667 38.5C8.15833 38.5 7.29483 38.1413 6.57617 37.4238C5.85872 36.7052 5.5 35.8417 5.5 34.8333V9.16666C5.5 8.15833 5.85872 7.29483 6.57617 6.57616C7.29483 5.85872 8.15833 5.49999 9.16667 5.49999H16.8667C17.2639 4.39999 17.9288 3.51388 18.8613 2.84166C19.7927 2.16944 20.8389 1.83333 22 1.83333C23.1611 1.83333 24.2079 2.16944 25.1405 2.84166C26.0718 3.51388 26.7361 4.39999 27.1333 5.49999H34.8333C35.8417 5.49999 36.7052 5.85872 37.4238 6.57616C38.1413 7.29483 38.5 8.15833 38.5 9.16666V21.45C37.9194 21.175 37.3236 20.9379 36.7125 20.7387C36.1014 20.5407 35.475 20.3958 34.8333 20.3042V9.16666H9.16667V34.8333H20.2583C20.35 35.5055 20.4954 36.1472 20.6947 36.7583C20.8927 37.3694 21.1292 37.95 21.4042 38.5H9.16667ZM9.16667 34.8333V9.16666V20.3042V20.1667V34.8333ZM12.8333 31.1667H20.3042C20.3958 30.525 20.5407 29.8986 20.7387 29.2875C20.9379 28.6764 21.1597 28.0805 21.4042 27.5H12.8333V31.1667ZM12.8333 23.8333H24.0167C24.9944 22.9167 26.0865 22.1528 27.2928 21.5417C28.5004 20.9305 29.7917 20.518 31.1667 20.3042V20.1667H12.8333V23.8333ZM12.8333 16.5H31.1667V12.8333H12.8333V16.5ZM22 7.79166C22.3972 7.79166 22.726 7.66149 22.9863 7.40116C23.2454 7.14205 23.375 6.81388 23.375 6.41666C23.375 6.01944 23.2454 5.69066 22.9863 5.43033C22.726 5.17122 22.3972 5.04166 22 5.04166C21.6028 5.04166 21.2746 5.17122 21.0155 5.43033C20.7552 5.69066 20.625 6.01944 20.625 6.41666C20.625 6.81388 20.7552 7.14205 21.0155 7.40116C21.2746 7.66149 21.6028 7.79166 22 7.79166ZM33 42.1667C30.4639 42.1667 28.3024 41.2732 26.5155 39.4863C24.7274 37.6982 23.8333 35.5361 23.8333 33C23.8333 30.4639 24.7274 28.3018 26.5155 26.5137C28.3024 24.7268 30.4639 23.8333 33 23.8333C35.5361 23.8333 37.6982 24.7268 39.4863 26.5137C41.2732 28.3018 42.1667 30.4639 42.1667 33C42.1667 35.5361 41.2732 37.6982 39.4863 39.4863C37.6982 41.2732 35.5361 42.1667 33 42.1667ZM32.0833 38.5H33.9167V33.9167H38.5V32.0833H33.9167V27.5H32.0833V32.0833H27.5V33.9167H32.0833V38.5Z"/>
</symbol>
<symbol id="icon-tasks-check" viewBox="0 0 37 37">
<path d="M4.625 24.6667V21.5833H16.9583V24.6667H4.625ZM4.625 18.5V15.4167H23.125V18.5H4.625ZM4.625 12.3333V9.25H23.125V12.3333H4.625ZM25.2063 29.2917L19.7333 23.8188L21.8917 21.6604L25.2063 24.8979L31.7583 18.3458L33.9167 20.5813L25.2063 29.2917Z"/>
</symbol>
<symbol id="icon-tasks-uncheck" viewBox="0 0 37 37">
<path d="M22.2 33.9167L20.0417 31.7583L24.05 27.75L20.0417 23.7417L22.2 21.5833L26.2083 25.5917L30.2167 21.5833L32.375 23.7417L28.3667 27.75L32.375 31.7583L30.2167 33.9167L26.2083 29.9083L22.2 33.9167ZM4.625 24.6667V21.5833H15.4167V24.6667H4.625ZM4.625 18.5V15.4167H21.5833V18.5H4.625ZM4.625 12.3333V9.25H21.5833V12.3333H4.625Z"/>
</symbol>
<symbol id="icon-task-uncheck" viewBox="0 0 40 40">
<path d="M20.0002 36.6667C17.6946 36.6667 15.5279 36.2289 13.5002 35.3533C11.4724 34.4789 9.7085 33.2917 8.2085 31.7917C6.7085 30.2917 5.52127 28.5278 4.64683 26.5C3.77127 24.4722 3.3335 22.3056 3.3335 20C3.3335 17.6944 3.77127 15.5278 4.64683 13.5C5.52127 11.4722 6.7085 9.70833 8.2085 8.20833C9.7085 6.70833 11.4724 5.52055 13.5002 4.645C15.5279 3.77055 17.6946 3.33333 20.0002 3.33333C22.3057 3.33333 24.4724 3.77055 26.5002 4.645C28.5279 5.52055 30.2918 6.70833 31.7918 8.20833C33.2918 9.70833 34.4791 11.4722 35.3535 13.5C36.229 15.5278 36.6668 17.6944 36.6668 20C36.6668 22.3056 36.229 24.4722 35.3535 26.5C34.4791 28.5278 33.2918 30.2917 31.7918 31.7917C30.2918 33.2917 28.5279 34.4789 26.5002 35.3533C24.4724 36.2289 22.3057 36.6667 20.0002 36.6667ZM20.0002 33.3333C23.7224 33.3333 26.8752 32.0417 29.4585 29.4583C32.0418 26.875 33.3335 23.7222 33.3335 20C33.3335 16.2778 32.0418 13.125 29.4585 10.5417C26.8752 7.95833 23.7224 6.66667 20.0002 6.66667C16.2779 6.66667 13.1252 7.95833 10.5418 10.5417C7.9585 13.125 6.66683 16.2778 6.66683 20C6.66683 23.7222 7.9585 26.875 10.5418 29.4583C13.1252 32.0417 16.2779 33.3333 20.0002 33.3333Z"/>
</symbol>
<symbol id="icon-task-check" viewBox="0 0 40 40">
<path d="M17.6668 27.6667L29.4168 15.9167L27.0835 13.5833L17.6668 23L12.9168 18.25L10.5835 20.5833L17.6668 27.6667ZM20.0002 36.6667C17.6946 36.6667 15.5279 36.2289 13.5002 35.3533C11.4724 34.4789 9.7085 33.2917 8.2085 31.7917C6.7085 30.2917 5.52127 28.5278 4.64683 26.5C3.77127 24.4722 3.3335 22.3056 3.3335 20C3.3335 17.6944 3.77127 15.5278 4.64683 13.5C5.52127 11.4722 6.7085 9.70833 8.2085 8.20833C9.7085 6.70833 11.4724 5.52056 13.5002 4.645C15.5279 3.77056 17.6946 3.33333 20.0002 3.33333C22.3057 3.33333 24.4724 3.77056 26.5002 4.645C28.5279 5.52056 30.2918 6.70833 31.7918 8.20833C33.2918 9.70833 34.4791 11.4722 35.3535 13.5C36.229 15.5278 36.6668 17.6944 36.6668 20C36.6668 22.3056 36.229 24.4722 35.3535 26.5C34.4791 28.5278 33.2918 30.2917 31.7918 31.7917C30.2918 33.2917 28.5279 34.4789 26.5002 35.3533C24.4724 36.2289 22.3057 36.6667 20.0002 36.6667ZM20.0002 33.3333C23.7224 33.3333 26.8752 32.0417 29.4585 29.4583C32.0418 26.875 33.3335 23.7222 33.3335 20C33.3335 16.2778 32.0418 13.125 29.4585 10.5417C26.8752 7.95833 23.7224 6.66667 20.0002 6.66667C16.2779 6.66667 13.1252 7.95833 10.5418 10.5417C7.9585 13.125 6.66683 16.2778 6.66683 20C6.66683 23.7222 7.9585 26.875 10.5418 29.4583C13.1252 32.0417 16.2779 33.3333 20.0002 33.3333Z"/>
</symbol>
<symbol id="icon-task-delete" viewBox="0 0 36 36">
<path d="M10.5 31.5C9.675 31.5 8.969 31.2065 8.382 30.6195C7.794 30.0315 7.5 29.325 7.5 28.5V9H6V6H13.5V4.5H22.5V6H30V9H28.5V28.5C28.5 29.325 28.2065 30.0315 27.6195 30.6195C27.0315 31.2065 26.325 31.5 25.5 31.5H10.5ZM25.5 9H10.5V28.5H25.5V9ZM13.5 25.5H16.5V12H13.5V25.5ZM19.5 25.5H22.5V12H19.5V25.5Z"/>
</symbol>
<symbol id="icon-task-drag-indicators" viewBox="0 0 43 43">
<path d="M16.1248 35.8333C15.1394 35.8333 14.2961 35.4828 13.595 34.7816C12.8927 34.0793 12.5415 33.2354 12.5415 32.25C12.5415 31.2646 12.8927 30.4207 13.595 29.7184C14.2961 29.0172 15.1394 28.6667 16.1248 28.6667C17.1103 28.6667 17.9541 29.0172 18.6565 29.7184C19.3576 30.4207 19.7082 31.2646 19.7082 32.25C19.7082 33.2354 19.3576 34.0793 18.6565 34.7816C17.9541 35.4828 17.1103 35.8333 16.1248 35.8333ZM26.8748 35.8333C25.8894 35.8333 25.0461 35.4828 24.345 34.7816C23.6427 34.0793 23.2915 33.2354 23.2915 32.25C23.2915 31.2646 23.6427 30.4207 24.345 29.7184C25.0461 29.0172 25.8894 28.6667 26.8748 28.6667C27.8603 28.6667 28.7041 29.0172 29.4065 29.7184C30.1076 30.4207 30.4582 31.2646 30.4582 32.25C30.4582 33.2354 30.1076 34.0793 29.4065 34.7816C28.7041 35.4828 27.8603 35.8333 26.8748 35.8333ZM16.1248 25.0833C15.1394 25.0833 14.2961 24.7322 13.595 24.0298C12.8927 23.3287 12.5415 22.4854 12.5415 21.5C12.5415 20.5146 12.8927 19.6707 13.595 18.9684C14.2961 18.2672 15.1394 17.9167 16.1248 17.9167C17.1103 17.9167 17.9541 18.2672 18.6565 18.9684C19.3576 19.6707 19.7082 20.5146 19.7082 21.5C19.7082 22.4854 19.3576 23.3287 18.6565 24.0298C17.9541 24.7322 17.1103 25.0833 16.1248 25.0833ZM26.8748 25.0833C25.8894 25.0833 25.0461 24.7322 24.345 24.0298C23.6427 23.3287 23.2915 22.4854 23.2915 21.5C23.2915 20.5146 23.6427 19.6707 24.345 18.9684C25.0461 18.2672 25.8894 17.9167 26.8748 17.9167C27.8603 17.9167 28.7041 18.2672 29.4065 18.9684C30.1076 19.6707 30.4582 20.5146 30.4582 21.5C30.4582 22.4854 30.1076 23.3287 29.4065 24.0298C28.7041 24.7322 27.8603 25.0833 26.8748 25.0833ZM16.1248 14.3333C15.1394 14.3333 14.2961 13.9822 13.595 13.2798C12.8927 12.5787 12.5415 11.7354 12.5415 10.75C12.5415 9.76458 12.8927 8.9213 13.595 8.22016C14.2961 7.51783 15.1394 7.16666 16.1248 7.16666C17.1103 7.16666 17.9541 7.51783 18.6565 8.22016C19.3576 8.9213 19.7082 9.76458 19.7082 10.75C19.7082 11.7354 19.3576 12.5787 18.6565 13.2798C17.9541 13.9822 17.1103 14.3333 16.1248 14.3333ZM26.8748 14.3333C25.8894 14.3333 25.0461 13.9822 24.345 13.2798C23.6427 12.5787 23.2915 11.7354 23.2915 10.75C23.2915 9.76458 23.6427 8.9213 24.345 8.22016C25.0461 7.51783 25.8894 7.16666 26.8748 7.16666C27.8603 7.16666 28.7041 7.51783 29.4065 8.22016C30.1076 8.9213 30.4582 9.76458 30.4582 10.75C30.4582 11.7354 30.1076 12.5787 29.4065 13.2798C28.7041 13.9822 27.8603 14.3333 26.8748 14.3333Z"/>
</symbol>
<symbol id="icon-task-edit" viewBox="0 0 35 35">
<path d="M7.29167 27.7083H9.33333L21.9115 15.1302L19.8698 13.0885L7.29167 25.6667V27.7083ZM28.1458 13.0156L21.9479 6.89062L23.9896 4.84896C24.5486 4.28993 25.2355 4.01042 26.0502 4.01042C26.864 4.01042 27.5503 4.28993 28.1094 4.84896L30.151 6.89062C30.7101 7.44965 31.0017 8.12437 31.026 8.91479C31.0503 9.70424 30.783 10.3785 30.224 10.9375L28.1458 13.0156ZM26.0312 15.1667L10.5729 30.625H4.375V24.4271L19.8333 8.96875L26.0312 15.1667Z"/>
</symbol>
<symbol id="icon-task-setting" viewBox="0 0 41 41">
<path d="M15.4718 36.7975L14.8028 31.4452C14.4404 31.3058 14.0991 31.1385 13.7791 30.9434C13.458 30.7482 13.1441 30.5392 12.8374 30.3161L7.86141 32.4069L3.26172 24.462L7.5687 21.2004C7.54083 21.0053 7.52689 20.8168 7.52689 20.6351V19.506C7.52689 19.3254 7.54083 19.1375 7.5687 18.9424L3.26172 15.6808L7.86141 7.73584L12.8374 9.82661C13.1441 9.6036 13.4647 9.39452 13.7992 9.19938C14.1337 9.00424 14.4682 8.83698 14.8028 8.6976L15.4718 3.34523H24.6712L25.3402 8.6976C25.7026 8.83698 26.0444 9.00424 26.3655 9.19938C26.6856 9.39452 26.9989 9.6036 27.3056 9.82661L32.2816 7.73584L36.8813 15.6808L32.5743 18.9424C32.6022 19.1375 32.6161 19.3254 32.6161 19.506V20.6351C32.6161 20.8168 32.5882 21.0053 32.5325 21.2004L36.8395 24.462L32.2398 32.4069L27.3056 30.3161C26.9989 30.5392 26.6783 30.7482 26.3438 30.9434C26.0093 31.1385 25.6748 31.3058 25.3402 31.4452L24.6712 36.7975H15.4718ZM20.1551 25.9255C21.772 25.9255 23.1519 25.3541 24.2949 24.2111C25.4378 23.0681 26.0093 21.6882 26.0093 20.0714C26.0093 18.4545 25.4378 17.0746 24.2949 15.9317C23.1519 14.7887 21.772 14.2172 20.1551 14.2172C18.5104 14.2172 17.1232 14.7887 15.9937 15.9317C14.8652 17.0746 14.301 18.4545 14.301 20.0714C14.301 21.6882 14.8652 23.0681 15.9937 24.2111C17.1232 25.3541 18.5104 25.9255 20.1551 25.9255ZM20.1551 22.5803C19.4582 22.5803 18.8661 22.3361 18.3788 21.8477C17.8904 21.3604 17.6462 20.7683 17.6462 20.0714C17.6462 19.3745 17.8904 18.7824 18.3788 18.2951C18.8661 17.8067 19.4582 17.5625 20.1551 17.5625C20.8521 17.5625 21.4447 17.8067 21.9331 18.2951C22.4204 18.7824 22.6641 19.3745 22.6641 20.0714C22.6641 20.7683 22.4204 21.3604 21.9331 21.8477C21.4447 22.3361 20.8521 22.5803 20.1551 22.5803ZM18.3989 33.4523H21.7023L22.2877 29.0199C23.1519 28.7969 23.9536 28.469 24.6929 28.0364C25.4311 27.6048 26.1069 27.0824 26.7201 26.4691L30.8599 28.1836L32.4907 25.3401L28.8945 22.6221C29.0339 22.2318 29.1315 21.8204 29.1873 21.3877C29.243 20.9562 29.2709 20.5174 29.2709 20.0714C29.2709 19.6253 29.243 19.186 29.1873 18.7534C29.1315 18.3218 29.0339 17.9109 28.8945 17.5206L32.4907 14.8026L30.8599 11.9592L26.7201 13.7154C26.1069 13.0743 25.4311 12.5374 24.6929 12.1047C23.9536 11.6732 23.1519 11.3459 22.2877 11.1229L21.7441 6.69046H18.4407L17.8553 11.1229C16.9911 11.3459 16.1899 11.6732 15.4517 12.1047C14.7124 12.5374 14.0361 13.0603 13.4229 13.6736L9.28313 11.9592L7.65233 14.8026L11.2485 17.4788C11.1091 17.897 11.0115 18.3151 10.9557 18.7333C10.9 19.1514 10.8721 19.5975 10.8721 20.0714C10.8721 20.5174 10.9 20.9495 10.9557 21.3677C11.0115 21.7858 11.1091 22.204 11.2485 22.6221L7.65233 25.3401L9.28313 28.1836L13.4229 26.4273C14.0361 27.0685 14.7124 27.6048 15.4517 28.0364C16.1899 28.469 16.9911 28.7969 17.8553 29.0199L18.3989 33.4523Z"/>
</symbol>
</svg>